<?xml version="1.0" encoding="utf-8"?>
<svg viewBox="0 0 90 90" xmlns="http://www.w3.org/2000/svg">
  <path d="M 47.865 16.656 L 61.637 24.65 C 62.129 24.93 62.148 25.708 61.637 25.991 L 45.274 35.496 C 44.798 35.777 44.208 35.777 43.734 35.496 L 27.375 25.991 C 26.871 25.718 26.862 24.922 27.375 24.65 L 41.135 16.656 L 41.135 1 L 6 21.409 L 6 62.224 L 19.471 54.401 L 19.471 38.411 C 19.463 37.84 20.129 37.434 20.625 37.741 L 36.985 47.25 C 37.481 47.539 37.758 48.054 37.758 48.59 L 37.758 67.594 C 37.768 68.165 37.103 68.572 36.607 68.264 L 22.838 60.269 L 9.365 68.092 L 44.5 88.499 L 79.635 68.092 L 66.162 60.269 L 52.392 68.264 C 51.905 68.562 51.224 68.173 51.242 67.594 L 51.242 48.59 C 51.242 48.02 51.557 47.512 52.015 47.25 L 68.377 37.741 C 68.861 37.444 69.546 37.823 69.529 38.411 L 69.529 54.401 L 83 62.224 L 83 21.409 L 47.865 1 L 47.865 16.656 Z" fill-rule="nonzero" style="fill: rgb(207, 207, 207);" transform="matrix(1, 0, 0, 1, 1.7763568394002505e-15, 0)"/>
</svg>